<svg width="162" height="56" viewBox="0 0 162 56" fill="none" xmlns="http://www.w3.org/2000/svg">
<path fill-rule="evenodd" clip-rule="evenodd" d="M153.944 48.0236H154.321C154.719 48.0236 154.969 47.8809 154.969 47.6613C154.969 47.4147 154.704 47.3091 154.311 47.3091C154.129 47.3091 154.006 47.3165 153.944 47.3286V48.0236ZM153.572 47.1552C153.759 47.1311 154.032 47.1154 154.283 47.1154C154.679 47.1154 154.94 47.1636 155.12 47.2711C155.258 47.3545 155.344 47.4861 155.344 47.6353C155.344 47.8846 155.102 48.0524 154.802 48.1191V48.1284C155.021 48.1793 155.153 48.3156 155.225 48.5148C155.32 48.7799 155.386 48.9643 155.445 49.0385H155.057C155.013 48.9819 154.946 48.8207 154.872 48.5825C154.788 48.3202 154.628 48.2183 154.292 48.2099H153.944V49.0385H153.572V47.1552ZM152.889 48.0769C152.889 47.1622 153.614 46.4168 154.51 46.4168C155.402 46.4168 156.126 47.1622 156.126 48.0769C156.126 48.9948 155.402 49.736 154.51 49.736C153.614 49.736 152.889 48.9948 152.889 48.0769ZM152.636 48.0769C152.636 47.0156 153.475 46.1539 154.51 46.1539C155.542 46.1539 156.382 47.0156 156.382 48.0769C156.382 49.1372 155.542 50 154.51 50C153.475 50 152.636 49.1372 152.636 48.0769ZM83.3411 34.6096C83.3411 35.0227 83.3162 35.4697 83.262 35.9517C83.2105 36.4327 83.1461 36.9078 83.0679 37.3743L80.9556 50H76.9288L78.9224 37.9115C78.973 37.5256 79.019 37.1551 79.0595 36.7973C79.099 36.4414 79.1192 36.1107 79.1192 35.8072C79.1192 34.4312 78.8645 33.4198 78.356 32.7739C77.8484 32.1281 76.9941 31.8032 75.7949 31.8032C74.5452 31.8032 73.461 32.3143 72.5488 33.3315C71.6365 34.3497 70.9993 35.8887 70.6333 37.9522L68.6396 50H64.6127L68.2479 28.3384H72.2747L71.9612 30.1955C72.5359 29.5622 73.2339 29.0192 74.0551 28.5663C74.8753 28.1125 75.8731 27.8846 77.0456 27.8846C79.0797 27.8846 80.6375 28.45 81.718 29.5768C82.8013 30.7046 83.3411 32.3822 83.3411 34.6096ZM99.9501 33.7456C99.149 33.1279 98.2577 32.6072 97.2714 32.1901C96.2851 31.772 95.2057 31.5639 94.0333 31.5639C93.1532 31.5639 92.4593 31.7387 91.9535 32.0884C91.4486 32.439 91.1816 32.9255 91.1543 33.5451C91.127 33.8406 91.1543 34.1104 91.2342 34.3537C91.3141 34.5951 91.4881 34.8383 91.7542 35.0806C92.0212 35.3239 92.4132 35.5947 92.9341 35.8893C93.4531 36.1857 94.1527 36.5364 95.0318 36.9411C95.9372 37.3735 96.7524 37.7963 97.4707 38.2144C98.1909 38.6325 98.7899 39.1029 99.2703 39.6293C99.7489 40.1557 100.096 40.7411 100.31 41.3882C100.523 42.0353 100.589 42.8021 100.51 43.6925C100.43 44.8802 100.143 45.8751 99.6492 46.6847C99.1566 47.4924 98.5445 48.1404 97.8111 48.626C97.0768 49.1106 96.2654 49.4612 95.3721 49.676C94.4789 49.8936 93.5932 50 92.7141 50C90.875 50 89.2419 49.6902 87.8155 49.0697C86.3902 48.4492 85.2111 47.71 84.2775 46.8462L86.4757 43.7742C87.3558 44.5286 88.3298 45.1415 89.3942 45.6138C90.4604 46.0851 91.6865 46.3198 93.0742 46.3198C94.0869 46.3198 94.8983 46.1127 95.5122 45.6936C96.1262 45.2774 96.4449 44.6759 96.4713 43.8948C96.4985 43.5974 96.4647 43.3171 96.3707 43.0463C96.2785 42.7764 96.098 42.5142 95.8319 42.2576C95.5649 42.002 95.1982 41.7455 94.7328 41.4889C94.2655 41.2342 93.66 40.9435 92.9125 40.6204C91.8745 40.1614 90.9747 39.7177 90.215 39.2863C89.4562 38.8539 88.8291 38.376 88.3364 37.8496C87.8419 37.325 87.4959 36.7378 87.2965 36.0917C87.0972 35.4455 87.037 34.6768 87.1169 33.7874C87.1969 32.7896 87.4357 31.9211 87.8372 31.179C88.2358 30.4378 88.7567 29.825 89.3942 29.3403C90.0345 28.8538 90.781 28.4899 91.6338 28.2485C92.4866 28.0053 93.4061 27.8846 94.3934 27.8846C96.1262 27.8846 97.623 28.1469 98.8914 28.6723C100.157 29.1978 101.215 29.7851 102.069 30.4312L99.9501 33.7456ZM119.969 50H116.236L115.242 38.7578C115.188 38.1678 115.148 37.4689 115.123 36.663C115.096 35.8561 115.083 35.2254 115.083 34.7689C115.002 34.9839 114.904 35.2595 114.785 35.5956C114.666 35.9309 114.539 36.2879 114.407 36.663C114.274 37.0389 114.13 37.4083 113.97 37.771C113.811 38.1337 113.678 38.4623 113.573 38.7578L108.608 50H104.873L103.006 28.8462H107.136L107.772 39.7247C107.799 40.3166 107.826 41.0013 107.853 41.7798C107.879 42.5611 107.892 43.1766 107.892 43.6341C108.051 43.1766 108.275 42.5658 108.567 41.8006C108.858 41.0345 109.124 40.3441 109.362 39.7247L114.328 28.8462H117.824L118.857 39.7247C118.909 40.3441 118.949 41.0345 118.976 41.8006C119.002 42.5658 119.016 43.1766 119.016 43.6341C119.174 43.1766 119.4 42.5611 119.691 41.7798C119.982 41.0013 120.234 40.3166 120.446 39.7247L125.014 28.8462H129.225L119.969 50ZM145.145 36.4546C145.145 37.1578 145.099 37.8382 145.007 38.4976C144.913 39.1571 144.786 39.7852 144.626 40.3771H131.356C131.196 42.2377 131.574 43.6801 132.492 44.7025C133.409 45.7269 134.636 46.24 136.179 46.24C137.028 46.24 137.832 46.0851 138.59 45.7763C139.346 45.4665 140.109 45.0674 140.88 44.5819L142.675 47.4933C141.586 48.3276 140.476 48.9567 139.346 49.3729C138.217 49.791 136.975 50 135.62 50C134.265 50 133.049 49.7568 131.972 49.2721C130.897 48.7875 130.001 48.092 129.282 47.1912C128.566 46.2866 128.04 45.1947 127.708 43.9148C127.378 42.6368 127.276 41.2124 127.409 39.6502C127.542 37.8429 127.894 36.2133 128.466 34.7575C129.038 33.3018 129.781 32.0627 130.699 31.0374C131.614 30.0131 132.658 29.232 133.827 28.6932C134.995 28.1535 136.245 27.8846 137.574 27.8846C138.821 27.8846 139.918 28.1013 140.861 28.5298C141.804 28.9631 142.595 29.5617 143.233 30.3305C143.872 31.0983 144.349 32.0029 144.666 33.0396C144.985 34.0772 145.145 35.2175 145.145 36.4546ZM141.241 37.0219C141.373 35.4864 141.113 34.2064 140.464 33.1811C139.811 32.1568 138.702 31.6437 137.135 31.6437C135.726 31.6437 134.589 32.1492 133.726 33.1602C132.863 34.1713 132.244 35.4579 131.874 37.0219H141.241ZM160.285 33.2076C159.967 32.9322 159.56 32.6917 159.068 32.4852C158.576 32.2786 157.997 32.1768 157.333 32.1768C156.695 32.1768 156.103 32.2728 155.558 32.4658C155.012 32.6568 154.521 32.9865 154.081 33.4549C153.643 33.9233 153.263 34.5343 152.945 35.2907C152.625 36.0481 152.371 37.0033 152.185 38.1583L150.191 50H146.081L149.791 28.3385H153.901L153.542 30.3197C154.154 29.604 154.872 29.0202 155.697 28.5654C156.521 28.1115 157.438 27.8846 158.45 27.8846C159.301 27.8846 160.012 28.002 160.583 28.2357C161.155 28.4694 161.627 28.7516 162 29.0823L160.285 33.2076ZM61.6348 29.2786C62.9961 30.2088 63.6763 31.6845 63.6763 33.7066C63.6763 34.0031 63.662 34.2929 63.6373 34.5751C63.6097 34.8573 63.5698 35.1481 63.5155 35.4446L61.0478 49.5544H56.9627L57.2862 47.6549C56.6117 48.3029 55.8097 48.855 54.8793 49.313C53.9489 49.772 52.8768 50 51.6638 50C50.6925 50 49.7821 49.8575 48.9325 49.5753C48.0839 49.293 47.3495 48.8616 46.7292 48.282C46.1071 47.7024 45.6362 46.9812 45.3118 46.1184C44.9883 45.2565 44.8808 44.2597 44.9883 43.1271C45.0701 41.887 45.3736 40.8085 45.8987 39.8925C46.4248 38.9756 47.0993 38.2211 47.9222 37.6282C48.7442 37.0352 49.667 36.5972 50.6925 36.3121C51.7171 36.0318 52.7816 35.8893 53.888 35.8893C54.9126 35.8893 55.9106 35.9909 56.8819 36.1924C57.8522 36.3948 58.6067 36.6447 59.147 36.9411L59.4296 35.4046C59.4838 35.1889 59.5171 34.9723 59.5314 34.7585C59.5447 34.5418 59.5523 34.3537 59.5523 34.1922C59.5523 33.2752 59.2412 32.6139 58.6219 32.21C57.9997 31.8052 57.016 31.6038 55.668 31.6038C54.67 31.6038 53.7196 31.7254 52.8168 31.9677C52.4296 32.0713 52.0577 32.1967 51.6895 32.3307C52.0558 31.4147 52.2261 30.4226 52.1309 29.4382L52.0396 28.4985C52.1376 28.469 52.2299 28.4386 52.3307 28.411C53.5846 28.0595 54.8593 27.8846 56.1532 27.8846C58.4449 27.8846 60.2734 28.3493 61.6348 29.2786ZM57.974 43.8141L58.581 40.3771C58.014 40.0807 57.3262 39.8327 56.5175 39.6293C55.7089 39.4269 54.7642 39.3262 53.6863 39.3262C52.3364 39.3262 51.2386 39.6502 50.389 40.2964C49.5404 40.9435 49.0876 41.8728 49.0343 43.0853C48.9801 44.0298 49.2493 44.8185 49.8439 45.4523C50.4356 46.0851 51.3936 46.4025 52.715 46.4025C53.7939 46.4025 54.7918 46.1393 55.7089 45.6138C56.625 45.0874 57.3804 44.4878 57.974 43.8141Z" fill="#333333"/>
<path fill-rule="evenodd" clip-rule="evenodd" d="M49.6037 28.936L47.25 4.1723C46.965 1.17827 44.4682 -0.604797 41.6724 0.188525L4.57253 10.7248C1.77771 11.5182 -0.258377 14.5894 0.0266183 17.5834L2.3804 42.3509C2.6654 45.344 5.16215 47.1261 7.95698 46.3337L17.1413 43.724C18.8027 43.56 21.4994 44.2198 22.3815 49.8617C22.3899 49.9104 22.3983 49.9523 22.4067 50L24.7474 46.1249V46.1173C25.8379 44.6508 26.8172 41.3955 32.6993 39.3073L45.0578 35.7974C47.8536 35.0032 49.8869 31.9319 49.6037 28.936Z" fill="#52BAD5"/>
<path fill-rule="evenodd" clip-rule="evenodd" d="M42.818 25.7865C42.5386 26.0525 42.2284 26.2642 41.8892 26.4282C41.55 26.5913 41.2267 26.7114 40.9193 26.7877C39.9951 27.0185 39.2439 26.9651 38.6645 26.6275C38.0861 26.2909 37.6974 25.7083 37.4993 24.8816C37.4657 24.7472 37.4414 24.6051 37.4218 24.4506C37.4031 24.2981 37.3891 24.136 37.3816 23.9624L36.8808 16.1656L35.0568 16.6214L34.911 14.1851L36.735 13.7294L36.4874 9.89624L38.8524 7.83093L39.1906 13.1172L42.206 12.362L42.3508 14.8011L39.3364 15.5525L39.8157 22.8278C39.827 23.0881 39.8587 23.3274 39.9092 23.54C40.0606 24.1713 40.5166 24.3887 41.2781 24.1999C41.6677 24.1017 41.9873 23.9691 42.2396 23.8004C42.491 23.6344 42.733 23.4237 42.9647 23.1729L42.818 25.7865Z" fill="white"/>
<path fill-rule="evenodd" clip-rule="evenodd" d="M35.409 26.0058C35.2278 26.5779 34.9502 27.069 34.5765 27.478C34.2018 27.8881 33.7589 28.2266 33.2477 28.4945C32.7366 28.7624 32.2124 28.9646 31.6779 29.0971C30.5594 29.3755 29.5204 29.4337 28.5626 29.2697C27.6039 29.1047 26.7779 28.8301 26.0836 28.4411L26.9685 26.2194C27.6151 26.5503 28.2963 26.7801 29.0149 26.9088C29.7325 27.0347 30.5127 26.9918 31.3546 26.781C31.9713 26.6285 32.4357 26.3777 32.746 26.0268C33.059 25.6788 33.1646 25.2602 33.0665 24.7767C33.0384 24.5908 32.9758 24.4239 32.8796 24.2714C32.7833 24.1188 32.6357 23.9853 32.4357 23.8681C32.2367 23.7527 31.976 23.6497 31.6546 23.5629C31.3331 23.4781 30.9211 23.3903 30.4202 23.3064C29.7203 23.1825 29.1074 23.0461 28.5822 22.8964C28.0571 22.7467 27.6048 22.5484 27.2283 22.3005C26.8517 22.0526 26.5536 21.7455 26.3378 21.3784C26.121 21.0113 25.9715 20.5479 25.8892 19.9901C25.7902 19.3656 25.8089 18.7963 25.9425 18.2795C26.0771 17.7637 26.3032 17.3069 26.6209 16.9131C26.9377 16.5174 27.3395 16.1818 27.8225 15.9024C28.3047 15.623 28.8457 15.4104 29.4456 15.2597C30.4996 14.9975 31.4499 14.9308 32.2965 15.0605C33.145 15.192 33.8757 15.3913 34.4896 15.6574L33.6879 18.0163C33.1113 17.7579 32.4909 17.573 31.8302 17.4671C31.1687 17.3603 30.4819 17.3956 29.768 17.5749C29.2335 17.7074 28.8382 17.92 28.5813 18.2118C28.3253 18.5055 28.2346 18.844 28.3094 19.2273C28.3365 19.4142 28.3925 19.5763 28.4766 19.7126C28.5617 19.848 28.7018 19.972 28.8999 20.0807C29.098 20.1884 29.3765 20.2962 29.7353 20.3982C30.096 20.5002 30.5725 20.6099 31.1677 20.7243C31.7817 20.8521 32.3395 20.9894 32.8375 21.1372C33.3374 21.285 33.771 21.4814 34.1401 21.7322C34.5092 21.983 34.8063 22.289 35.0315 22.6533C35.2567 23.0185 35.41 23.4809 35.4922 24.0387C35.6184 24.7806 35.5903 25.4347 35.409 26.0058Z" fill="white"/>
<path fill-rule="evenodd" clip-rule="evenodd" d="M22.3965 31.1262L22.3227 29.96C22.0583 30.4311 21.7032 30.8649 21.2575 31.2654C20.8118 31.6659 20.2249 31.9576 19.4952 32.1388C18.2309 32.4554 17.1806 32.3572 16.3453 31.847C15.5099 31.336 14.9324 30.412 14.611 29.0695C14.5512 28.8215 14.5035 28.5479 14.4671 28.2504C14.4297 27.9539 14.4017 27.6583 14.383 27.3636L13.8756 19.439L16.3808 18.8125L16.8825 26.3968C16.9059 26.638 16.9311 26.8668 16.9582 27.09C16.9853 27.3102 17.0208 27.5124 17.0648 27.6945C17.2638 28.5221 17.5675 29.0914 17.9758 29.4003C18.3851 29.7112 18.9635 29.7732 19.7091 29.5863C20.4866 29.3917 21.0902 28.9179 21.5191 28.1598C21.948 27.4046 22.1181 26.3786 22.0321 25.0857L21.535 17.5243L24.0392 16.8998L24.9007 30.4988L22.3965 31.1262Z" fill="white"/>
<path fill-rule="evenodd" clip-rule="evenodd" d="M12.7542 35.3102C12.672 35.97 12.4832 36.5621 12.187 37.0837C11.8899 37.6053 11.4657 38.0687 10.9116 38.4806C10.3575 38.8906 9.63983 39.2682 8.75961 39.6115L7.67102 37.5404C8.21018 37.282 8.65869 37.0379 9.01564 36.81C9.37352 36.5803 9.65104 36.3218 9.8482 36.0358C10.0463 35.7507 10.1799 35.4103 10.2481 35.0136C10.3173 34.6198 10.3332 34.1297 10.2949 33.5424L9.44921 20.5441L11.9534 19.9176L12.7991 33.0217C12.8514 33.8866 12.8365 34.6494 12.7542 35.3102Z" fill="white"/>
<path fill-rule="evenodd" clip-rule="evenodd" d="M9.03896 15.87C9.27723 15.4686 9.61549 15.213 10.0528 15.1043C10.4752 14.9975 10.8779 15.0681 11.2629 15.3141C11.6488 15.561 11.8973 15.9148 12.0076 16.3782C12.115 16.8254 12.0524 17.2497 11.8226 17.6483C11.5918 18.0488 11.2657 18.2995 10.8442 18.4054C10.406 18.516 9.99113 18.4483 9.5968 18.2042C9.20435 17.9601 8.95393 17.6149 8.84647 17.1677C8.73621 16.7053 8.79975 16.2714 9.03896 15.87Z" fill="white"/>
</svg>
